<?xml version="1.0" encoding="UTF-8"?>
<svg xmlns="http://www.w3.org/2000/svg" width="228" height="50" viewBox="0 0 228 50" fill="none">
  <path fill-rule="evenodd" clip-rule="evenodd" d="M0.160004 0.119987C7.56 -0.610013 14.82 1.98999 20.07 7.23999C29.71 16.88 29.71 32.56 20.07 42.2C14.82 47.45 7.56 50.05 0.160004 49.32C0.0700037 49.31 0 49.23 0 49.14C0 49.05 0.0700037 48.97 0.160004 48.96C5.75 48.41 11.02 45.92 14.99 41.94C19.59 37.34 22.13 31.22 22.13 24.71C22.13 18.2 19.59 12.08 14.99 7.47999C11.02 3.49999 5.75 1.00999 0.160004 0.459987C0.0700037 0.469987 0 0.389987 0 0.299987C0 0.209987 0.0700037 0.129987 0.160004 0.119987Z" fill="white"/>
  <path fill-rule="evenodd" clip-rule="evenodd" d="M90.23 29.51V4.04999H94.44V29.98C94.44 31.69 94.21 33.51 93.77 35.44C93.32 37.37 92.51 39.15 91.34 40.78C90.17 42.41 88.59 43.77 86.58 44.84C84.58 45.91 82.03 46.44 78.96 46.44C75.85 46.44 73.3 45.91 71.31 44.84C69.32 43.77 67.75 42.41 66.58 40.78C65.41 39.14 64.61 37.36 64.16 35.44C63.71 33.51 63.49 31.69 63.49 29.98V4.04999H67.69V29.51C67.69 31.18 67.89 32.81 68.27 34.39C68.66 35.97 69.29 37.37 70.17 38.6C71.05 39.83 72.2 40.82 73.64 41.58C75.08 42.34 76.85 42.72 78.95 42.72C81.05 42.72 82.82 42.34 84.26 41.58C85.7 40.82 86.86 39.83 87.73 38.6C88.61 37.37 89.24 35.97 89.63 34.39C90.03 32.81 90.23 31.18 90.23 29.51Z" fill="white"/>
  <path fill-rule="evenodd" clip-rule="evenodd" d="M154.3 26.09C155.46 26.97 156.42 28.07 157.15 29.42C157.89 30.76 158.26 32.47 158.26 34.53C158.26 36.59 157.87 38.38 157.08 39.88C156.29 41.38 155.27 42.61 154.01 43.59C152.75 44.56 151.31 45.28 149.7 45.75C148.08 46.22 146.46 46.45 144.82 46.45C143.57 46.45 142.33 46.32 141.08 46.07C139.83 45.82 138.65 45.44 137.52 44.93C136.39 44.43 135.34 43.78 134.37 43C133.4 42.22 132.54 41.33 131.8 40.32L135.42 37.63C136.32 39.11 137.57 40.35 139.19 41.34C140.81 42.33 142.71 42.83 144.89 42.83C145.94 42.83 147.01 42.66 148.1 42.33C149.19 42 150.17 41.49 151.05 40.81C151.93 40.13 152.65 39.29 153.21 38.3C153.77 37.31 154.06 36.15 154.06 34.82C154.06 33.38 153.78 32.18 153.21 31.23C152.65 30.28 151.89 29.48 150.96 28.84C150.03 28.2 148.95 27.66 147.75 27.23L143.96 25.95C142.6 25.52 141.25 25.03 139.93 24.49C138.6 23.95 137.42 23.23 136.37 22.36C135.32 21.48 134.47 20.4 133.83 19.12C133.19 17.83 132.87 16.26 132.87 14.39C132.87 12.41 133.27 10.69 134.07 9.24998C134.87 7.80998 135.91 6.61998 137.19 5.68998C138.48 4.75998 139.9 4.07998 141.46 3.64998C143.02 3.21998 144.55 3.00998 146.07 3.00998C148.87 3.00998 151.27 3.49998 153.25 4.49998C155.24 5.48998 156.73 6.66998 157.75 8.02998L154.42 10.72C153.52 9.46998 152.38 8.46998 150.98 7.70998C149.58 6.94998 147.88 6.56998 145.9 6.56998C144.89 6.56998 143.86 6.72998 142.8 7.03998C141.75 7.34998 140.8 7.82998 139.94 8.46998C139.08 9.10998 138.39 9.91998 137.87 10.89C137.35 11.86 137.08 13.01 137.08 14.34C137.08 15.66 137.33 16.75 137.84 17.61C138.34 18.47 139.01 19.2 139.85 19.8C140.69 20.4 141.64 20.9 142.7 21.29L146.05 22.46L150.39 23.98C151.83 24.5 153.14 25.21 154.3 26.09Z" fill="white"/>
  <path fill-rule="evenodd" clip-rule="evenodd" d="M205.63 22.79L227.64 45.39H221.45L200.78 23.38H200.72V45.39H196.52V4.04999H200.72V22.62H200.78L220.46 4.04999H226.47L205.63 22.79Z" fill="white"/>
</svg>